<?xml version="1.0" encoding="UTF-8"?>
<svg width="90px" height="86px" viewBox="0 0 90 86" version="1.1" xmlns="http://www.w3.org/2000/svg" xmlns:xlink="http://www.w3.org/1999/xlink">
    <!-- Generator: Sketch 47.1 (45422) - http://www.bohemiancoding.com/sketch -->
    <title>LinkedIn-color</title>
    <desc>Created with Sketch.</desc>
    <defs></defs>
    <g id="Page-1" stroke="none" stroke-width="1" fill="none" fill-rule="evenodd">
        <g id="Desktop" transform="translate(-175.000000, -2410.000000)" fill="#443742">
            <g id="LEFT-SIDEBAR" transform="translate(-14.000000, 3.000000)">
                <g id="Social" transform="translate(116.000000, 1850.000000)">
                    <g id="LinkedIn" transform="translate(73.000000, 557.000000)">
                        <path d="M70.1087723,85.9844352 L70.1087723,55.7574679 C70.1087723,47.8456005 66.9972954,42.4443883 60.1552211,42.4443883 C54.9218015,42.4443883 52.0114064,46.089243 50.6567498,49.6019579 C50.1487535,50.8627914 50.2281279,52.6191489 50.2281279,54.3755063 L50.2281279,85.9844352 L30.5221072,85.9844352 C30.5221072,85.9844352 30.5722641,75.4111027 30.6057124,63.2344007 C30.6475345,48.0092671 30.6632348,30.2774675 30.5221072,27.5731608 L50.2281279,27.5731608 L50.2281279,36.7403558 C51.392286,32.7321168 57.6893227,27.0115668 67.7381232,27.0115668 C80.2051976,27.0115668 90,35.4134525 90,53.5055863 L90,85.9844352 L70.1087723,85.9844352 Z M10.5938382,20.2669339 L10.4668391,20.2669339 C4.11688617,20.2669339 0,15.8017115 0,10.1417257 C0,4.37162333 4.2385936,0 10.7155456,0 C17.187206,0 21.1665099,4.36061169 21.2935089,10.1252082 C21.2935089,15.7851941 17.187206,20.2669339 10.5938382,20.2669339 L10.5938382,20.2669339 L10.5938382,20.2669339 Z M2.27010818,27.5731608 L19.8118532,27.5731608 L19.8118532,85.9844352 L2.27010818,85.9844352 L2.27010818,27.5731608 L2.27010818,27.5731608 Z"></path>
                    </g>
                </g>
            </g>
        </g>
    </g>
</svg>